<svg width="119" height="103" viewBox="0 0 119 103" fill="none" xmlns="http://www.w3.org/2000/svg">
<g clip-path="url(#clip0_56_546)">
<path d="M64.7809 65.129V69.9727L119.341 102.998V82.8655L73.7853 55.1393C72.5945 59.7665 69.1982 63.4925 64.7809 65.129Z" fill="black"/>
<path d="M64.7809 33.004V37.8446C69.1997 39.4827 72.5945 43.2071 73.7853 47.8343L119.341 20.1081V-0.0249023L64.7809 33.004Z" fill="black"/>
<path d="M0 20.1081L45.4196 47.7514C46.644 43.1073 50.0924 39.3829 54.5601 37.7862V33.0025L0 -0.0249023V20.1081Z" fill="black"/>
<path d="M45.4196 55.2222L0 82.867V103L54.5601 69.9742V65.1873C50.0924 63.5907 46.644 59.8662 45.4196 55.2222Z" fill="black"/>
</g>
<defs>
<clipPath id="clip0_56_546">
<rect width="119" height="103" fill="white"/>
</clipPath>
</defs>
</svg>
