<svg width="32" height="32" viewBox="0 0 32 32" fill="none" xmlns="http://www.w3.org/2000/svg">
<path d="M15.6799 18.9943C17.4978 18.9943 18.9715 17.5206 18.9715 15.7027C18.9715 13.8848 17.4978 12.4111 15.6799 12.4111C13.862 12.4111 12.3882 13.8848 12.3882 15.7027C12.3882 17.5206 13.862 18.9943 15.6799 18.9943Z" fill="black"/>
<path d="M23.3758 9.88146C23.1969 9.42151 22.9832 9.09166 22.6371 8.74554C22.2909 8.39942 21.9634 8.18571 21.5012 8.00684C21.1527 7.87211 20.6301 7.71183 19.6684 7.66769C18.6277 7.62123 18.3141 7.60962 15.6799 7.60962C13.0457 7.60962 12.732 7.61891 11.6914 7.66769C10.7297 7.71183 10.207 7.87211 9.85857 8.00684C9.39863 8.18571 9.06877 8.39942 8.72265 8.74554C8.37653 9.09166 8.16282 9.41919 7.98395 9.88146C7.84922 10.2299 7.68894 10.7526 7.6448 11.7143C7.59835 12.7549 7.58673 13.0685 7.58673 15.7027C7.58673 18.337 7.59602 18.6506 7.6448 19.6912C7.68894 20.6529 7.84922 21.1756 7.98395 21.524C8.16282 21.984 8.37653 22.3138 8.72265 22.66C9.06877 23.0061 9.39631 23.2198 9.85857 23.3987C10.207 23.5334 10.7297 23.6937 11.6914 23.7378C12.732 23.7843 13.0433 23.7959 15.6799 23.7959C18.3164 23.7959 18.6277 23.7866 19.6684 23.7378C20.6301 23.6937 21.1527 23.5334 21.5012 23.3987C21.9611 23.2198 22.2909 23.0061 22.6371 22.66C22.9832 22.3138 23.1969 21.9863 23.3758 21.524C23.5105 21.1756 23.6708 20.6529 23.7149 19.6912C23.7614 18.6506 23.773 18.337 23.773 15.7027C23.773 13.0685 23.7637 12.7549 23.7149 11.7143C23.6708 10.7526 23.5105 10.2299 23.3758 9.88146ZM15.6799 20.7737C12.8807 20.7737 10.6112 18.5042 10.6112 15.7051C10.6112 12.9059 12.8807 10.6364 15.6799 10.6364C18.479 10.6364 20.7485 12.9059 20.7485 15.7051C20.7485 18.5042 18.479 20.7737 15.6799 20.7737ZM20.9483 11.6167C20.2932 11.6167 19.7636 11.0871 19.7636 10.432C19.7636 9.77692 20.2932 9.24729 20.9483 9.24729C21.6034 9.24729 22.133 9.77692 22.133 10.432C22.133 11.0871 21.6034 11.6167 20.9483 11.6167Z" fill="black"/>
<path d="M15.6799 0.0228882C7.01994 0.0228882 0 7.04282 0 15.7027C0 24.3627 7.01994 31.3826 15.6799 31.3826C24.3398 31.3826 31.3597 24.3627 31.3597 15.7027C31.3597 7.04282 24.3375 0.0228882 15.6799 0.0228882ZM25.492 19.7725C25.4432 20.8225 25.2782 21.5403 25.032 22.1698C24.7788 22.8179 24.442 23.3685 23.8938 23.919C23.3456 24.4672 22.795 24.8064 22.1446 25.0572C21.5174 25.3011 20.7996 25.4684 19.7473 25.5172C18.695 25.566 18.3582 25.5776 15.6775 25.5776C12.9969 25.5776 12.66 25.566 11.6077 25.5172C10.5578 25.4684 9.83998 25.3035 9.21046 25.0572C8.56236 24.804 8.01182 24.4672 7.46129 23.919C6.91307 23.3708 6.57393 22.8202 6.32305 22.1698C6.07914 21.5426 5.91188 20.8248 5.8631 19.7725C5.81432 18.7202 5.80271 18.3834 5.80271 15.7027C5.80271 13.0221 5.81432 12.6852 5.8631 11.633C5.91188 10.583 6.07682 9.86519 6.32305 9.23568C6.57625 8.58757 6.91307 8.03704 7.46129 7.4865C8.0095 6.93829 8.56004 6.59914 9.21046 6.34826C9.83766 6.10435 10.5554 5.9371 11.6077 5.88832C12.66 5.83953 12.9969 5.82792 15.6775 5.82792C18.3582 5.82792 18.695 5.83953 19.7473 5.88832C20.7973 5.9371 21.5151 6.10203 22.1446 6.34826C22.7927 6.60146 23.3432 6.93829 23.8938 7.4865C24.442 8.03471 24.7811 8.58525 25.032 9.23568C25.2759 9.86287 25.4432 10.5807 25.492 11.633C25.5407 12.6852 25.5524 13.0221 25.5524 15.7027C25.5524 18.3834 25.5407 18.7202 25.492 19.7725Z" fill="black"/>
</svg>
