<svg width="32" height="32" viewBox="0 0 32 32" fill="none" xmlns="http://www.w3.org/2000/svg">
<path d="M16.3201 0C7.66022 0 0.640259 7.01993 0.640259 15.6799C0.640259 24.3398 7.66022 31.3597 16.3201 31.3597C24.9801 31.3597 32 24.3398 32 15.6799C32 7.01993 24.9801 0 16.3201 0ZM11.1446 24.2469C10.0296 24.2353 8.91456 24.2376 7.79723 24.2469C7.61836 24.2469 7.56493 24.2027 7.56493 24.0192C7.56958 20.0447 7.56958 16.0701 7.56493 12.0932C7.56493 11.9283 7.60446 11.8702 7.77868 11.8702C8.90996 11.8772 10.0412 11.8795 11.1725 11.8702C11.3908 11.8702 11.4187 11.9515 11.4187 12.1397C11.4141 14.1188 11.4164 16.098 11.4164 18.0771C11.4164 20.0563 11.4141 22.0029 11.421 23.9658C11.421 24.1841 11.3676 24.2492 11.1423 24.2469H11.1446ZM9.49764 10.1698C8.28274 10.1698 7.27456 9.16633 7.26991 7.95143C7.26527 6.72492 8.27345 5.71444 9.50229 5.71444C10.7218 5.71444 11.7254 6.71562 11.7277 7.93052C11.7277 9.16401 10.7288 10.1675 9.49764 10.1675V10.1698ZM25.8512 23.9913C25.8512 24.1934 25.7954 24.2469 25.5956 24.2445C24.4806 24.2353 23.3633 24.2353 22.2483 24.2445C22.0508 24.2445 22.009 24.1865 22.009 24.0006C22.016 21.9402 22.016 19.8797 22.009 17.817C22.009 17.3013 21.9742 16.7833 21.8302 16.2815C21.563 15.357 20.9009 14.8854 19.9323 14.9365C18.6082 15.0062 17.9206 15.6613 17.7511 17.0063C17.7116 17.3268 17.6907 17.6497 17.693 17.9726C17.693 19.9773 17.693 21.982 17.6976 23.9867C17.6976 24.1865 17.6488 24.2445 17.4444 24.2445C16.3201 24.2353 15.1958 24.2353 14.0715 24.2445C13.8903 24.2445 13.8392 24.1981 13.8392 24.0146C13.8438 20.047 13.8438 16.0771 13.8392 12.1095C13.8392 11.912 13.9043 11.8679 14.0901 11.8679C15.1563 11.8749 16.2249 11.8772 17.2911 11.8679C17.4886 11.8679 17.5374 11.9306 17.535 12.1165C17.5234 12.5903 17.5304 13.0642 17.5304 13.5404C17.7882 13.2501 17.9996 12.9574 18.2644 12.7088C19.0774 11.9422 20.0391 11.5566 21.1634 11.5659C21.7813 11.5706 22.39 11.6147 22.9846 11.7866C24.3459 12.1792 25.1357 13.1177 25.5143 14.4464C25.7977 15.4429 25.8489 16.4673 25.8512 17.4941C25.8558 19.6591 25.8442 21.8264 25.8512 23.9913Z" fill="black"/>
</svg>
