<svg width="32" height="32" viewBox="0 0 32 32" fill="none" xmlns="http://www.w3.org/2000/svg">
<path d="M13.6007 18.8158L19.0317 15.6799L13.6007 12.5439V18.8158Z" fill="black"/>
<path d="M15.6914 0C7.03144 0 0.0115051 7.01993 0.0115051 15.6799C0.0115051 24.3398 7.03144 31.3597 15.6914 31.3597C24.3513 31.3597 31.3712 24.3398 31.3712 15.6799C31.3712 7.01993 24.3513 0 15.6914 0ZM25.7079 20.7113C25.4686 21.6103 24.7601 22.3188 23.8588 22.5604C22.2281 22.9971 15.6914 22.9971 15.6914 22.9971C15.6914 22.9971 9.1546 22.9971 7.52389 22.5604C6.62491 22.3188 5.91642 21.6126 5.67484 20.7113C5.23813 19.0806 5.23812 15.6799 5.23812 15.6799C5.23812 15.6799 5.23813 12.2791 5.67484 10.6484C5.9141 9.74939 6.62259 9.04089 7.52389 8.7993C9.1546 8.36259 15.6914 8.36259 15.6914 8.36259C15.6914 8.36259 22.2281 8.36259 23.8588 8.7993C24.7578 9.04089 25.4663 9.74706 25.7079 10.6484C26.1446 12.2791 26.1446 15.6799 26.1446 15.6799C26.1446 15.6799 26.1446 19.0806 25.7079 20.7113Z" fill="black"/>
</svg>
